<svg width="1840" height="296" viewBox="0 0 1840 296" fill="none" xmlns="http://www.w3.org/2000/svg">
<path d="M433.92 294.593C423.995 291.628 416.276 286.836 407.865 278.395C400.403 270.92 395.345 264.01 382.752 244.075C374.393 230.849 370.475 225.106 359.719 210.357C350.713 198 343.663 187.962 340.259 182.635C337.26 177.954 332.099 168.956 332.312 168.777C332.385 168.718 334.708 168.428 337.495 168.131C369.945 164.624 387.648 153.196 395.514 130.646C398.154 123.089 398.882 117.917 398.852 106.965C398.83 98.116 398.72 96.6373 397.661 91.5923C394.015 74.2427 385.656 60.1699 374.408 52.4498C362.748 44.4474 341.509 39.5213 324.585 40.9033C318.527 41.3938 311.065 42.9021 307.404 44.3659L305.25 45.2277L305.324 54.9687C305.427 66.9462 304.772 96.147 303.618 131.203C301.266 202.585 301.221 232.647 303.412 262.391C304.192 273.023 304.603 274.948 307.507 281.382C308.691 284.027 309.772 286.583 309.904 287.074C310.036 287.564 310.264 288.389 310.419 288.909L310.683 289.86L285.879 290.187C272.241 290.365 260.67 290.388 260.17 290.223C259.287 289.941 259.339 289.74 261.471 284.524C264.162 278.029 265.896 271.17 266.617 264.166C267.999 249.565 268.323 221.39 267.455 189.901C267.183 179.996 266.941 147.875 266.896 118.526C266.823 64.1667 266.786 62.4281 265.059 48.4816C263.97 39.5877 261.397 27.9074 259.346 22.4981C259.074 21.7774 259.155 21.7032 259.861 22.0002C260.331 22.201 280.416 22.5204 304.493 22.7136C347.148 23.0553 352.404 23.2337 364.336 24.7197C404.3 29.6979 425.385 46.2599 433.626 79.1236C435.853 87.9953 436.25 91.5842 436.243 102.96C436.236 112.827 436.147 114.053 435.059 119.232C430.972 138.699 421.532 151.97 403.057 164.222C397.411 167.967 388.42 172.789 381.642 175.709L377.165 177.633L386.075 190.993C406.932 222.274 425.833 248.562 442.852 269.954C449.505 278.32 461.658 292.794 462.43 293.285C462.687 293.441 462.9 293.857 462.9 294.206C462.9 294.726 462.312 294.793 459.702 294.57C457.056 294.347 456.394 294.421 455.909 295.016C455.394 295.648 454.115 295.744 446.455 295.722C438.36 295.7 437.287 295.604 433.92 294.6L433.92 294.593ZM591.386 295.44C537.821 286.546 501.555 265.221 481.309 230.716C469.62 210.803 463.782 186.684 463.782 158.308C463.782 117.234 477.016 82.6166 502.122 58.0151C527.536 33.1164 563.067 19.6678 606.788 18.3898C626.549 17.8177 640.944 19.5861 671.248 26.3103C678.996 28.0342 688.068 29.9884 691.421 30.6495L697.508 31.8682L697.618 42.2854C697.699 49.827 697.942 53.8097 698.478 56.7073C698.89 58.9067 699.905 64.2119 700.735 68.4918C701.524 72.5405 702.195 76.6115 702.75 80.6996C703.308 85.44 703.08 93.3605 702.338 95.1734C702.088 95.7903 701.875 96.043 701.86 95.7383C701.809 94.7872 698.456 87.9885 696.126 84.1248C683.966 63.9222 662.308 49.0914 636.709 43.4221C625.851 41.0147 622.498 40.7027 607.891 40.7102C593.172 40.7102 588.96 41.1633 578.631 43.8085C565.471 47.1818 552.165 53.6685 541.784 61.7749C525.36 74.6068 512.98 92.8332 506.113 114.306C497.181 142.244 498.218 174.751 508.885 201.084C524.618 239.907 556.936 265.927 596.444 271.574C604.251 272.689 623.336 272.689 631.651 271.574C648.244 269.345 662.212 265.259 675.21 258.824C683.429 254.752 688.575 251.245 692.56 246.98L698.618 240.516C701.926 237.009 704.308 235.701 707.425 235.701C710.035 235.701 710.19 235.932 710.19 239.684C710.19 246.869 707.741 255.027 700.324 272.577C697.545 279.146 695.148 285.03 694.994 285.654C694.663 286.977 695.486 286.762 683.128 288.812C670.332 290.903 657.502 292.768 644.642 294.407C634.349 295.737 634.232 295.745 613.397 295.678C601.899 295.648 591.989 295.537 591.386 295.44ZM1403.1 294.831C1393.96 292.557 1386.14 287.921 1378.8 280.387C1374.38 275.854 1370.59 270.861 1361.04 256.937C1355.58 248.985 1350.08 241.054 1344.55 233.145C1323.79 203.469 1310.22 183.474 1303.59 172.782L1301.11 168.777L1306.07 168.25C1335.55 165.107 1352.79 155.522 1361.96 137.206C1366.95 127.213 1368.89 119.574 1369.22 108.489C1369.59 96.132 1367.99 88.375 1362.99 78.0545C1359.4 70.6538 1355.71 65.3932 1350.2 59.8206C1343.61 53.1705 1337.1 48.7126 1328.7 45.1088C1313.48 38.5702 1295.66 37.8644 1278.37 43.1026L1275.18 44.0687V46.1638C1275.16 50.399 1274.27 83.2778 1273.42 110.74C1271.46 174.499 1271.01 203.952 1271.62 229.92C1272.15 251.988 1272.74 263.468 1273.67 269.434C1274.02 271.715 1275.48 277.221 1276.9 281.657C1278.34 286.1 1279.4 289.83 1279.29 289.956C1279.16 290.083 1269.03 290.202 1256.77 290.224C1243.08 290.254 1233.29 290.454 1231.4 290.752C1229.71 291.019 1228.26 291.175 1228.19 291.101C1228.12 291.026 1229.23 288.077 1230.69 284.547C1235.37 273.164 1235.76 270.779 1236.48 248.659C1236.81 238.331 1236.79 227.981 1236.38 209.688C1236.07 195.667 1235.82 158.07 1235.81 123.639C1235.79 68.5289 1235.7 61.7078 1235 54.56C1233.71 41.4086 1231.85 31.8161 1229.36 25.4559C1228.66 23.6727 1228.1 22.1718 1228.1 22.1123C1228.1 22.0532 1230.12 22.1869 1232.6 22.4095C1235.08 22.6175 1256.42 22.8257 1280.02 22.8554C1311.6 22.9075 1324.31 23.0784 1328.2 23.4943C1340.58 24.8318 1349.85 26.6671 1357.9 29.3568C1363.45 31.2144 1372.75 35.8062 1376.72 38.6669C1392.16 49.7453 1402.32 69.0936 1405 92.4616C1405.7 98.5544 1405.33 113.601 1404.35 118.972C1402.66 127.841 1399.14 136.25 1394.02 143.656C1385.77 155.321 1374.66 164.089 1357.02 172.894C1351.82 175.494 1347.49 177.664 1347.4 177.731C1346.88 178.102 1366.12 207.511 1376.59 222.364C1395.52 249.239 1419.67 280.453 1430 291.406L1433.26 294.853L1429.99 294.571C1427.3 294.348 1426.59 294.421 1426 295.017C1424.88 296.161 1407.87 296.012 1403.1 294.831ZM1017.76 290.967C1017.76 290.722 1018.23 289.444 1018.81 288.129C1020.45 284.384 1022.43 277.727 1023.44 272.622C1026.64 256.283 1027.15 237.514 1025.64 191.239C1025.03 172.329 1025.38 131.091 1026.31 112.969C1027.9 82.1336 1027.69 59.8281 1025.67 45.8147C1024.49 37.53 1023.41 33.9412 1020.38 28.1903C1017.31 22.3723 1017.19 21.778 1019.2 22.0529C1023.84 22.6845 1065.07 23.1302 1118.64 23.1302H1180.13V41.8098C1180.13 52.0857 1180.06 60.4894 1179.97 60.4894C1179.89 60.4894 1178.35 59.8059 1176.57 58.9736C1169.97 55.8976 1162.5 53.973 1151.89 52.6207C1145.44 51.8035 1127.74 51.6549 1084.1 52.0561L1061.33 52.264V94.3934C1061.33 117.576 1061.38 136.545 1061.44 136.552C1061.5 136.57 1068.97 136.864 1078.05 137.214C1132.35 139.301 1153.92 138.276 1172.61 132.711C1173.57 132.421 1173.64 132.496 1173.38 133.461C1172.52 136.582 1172.19 144.384 1172.64 151.071C1172.91 154.935 1173.24 160.834 1173.39 164.17L1173.66 170.234L1172.29 170.538C1170.67 170.902 1170.16 170.761 1164.95 168.547C1162.35 167.435 1159.61 166.668 1156.81 166.266C1150.74 165.389 1123.1 165.508 1105.87 166.489C1091.55 167.291 1071.24 167.536 1064.96 166.979L1061.33 166.66V259.136L1072 259.418C1077.86 259.575 1089.2 259.931 1097.19 260.213C1114.91 260.83 1142.01 260.481 1151.53 259.508C1167.35 257.895 1177.48 255.517 1185.15 251.617L1187.75 250.302L1187.47 255.629C1186.96 265.11 1184.07 289.243 1183.36 289.956C1183.23 290.083 1159.25 290.12 1130.05 290.038C1081.67 289.904 1032.14 290.41 1021.84 291.13C1019.19 291.316 1017.76 291.264 1017.76 290.967ZM1494.3 291.116C1494.3 290.953 1494.78 289.883 1495.35 288.724C1498.61 282.215 1501.07 269.628 1502.24 253.497C1502.68 247.508 1503.75 187.249 1503.7 171.668C1503.68 167.879 1503.45 163.599 1503.18 162.165C1502.23 157.224 1498.26 150.299 1489.15 137.72C1486.82 134.502 1478.64 122.658 1470.99 111.417C1440.82 67.088 1425.63 46.3131 1409.94 27.9159L1405.87 23.1457L1409.93 23.4726C1415.38 23.9184 1445.62 23.8887 1457.01 23.436L1466.14 23.0795L1465.66 24.3278C1465.39 25.0188 1465.07 27.6935 1464.94 30.2866L1464.71 34.9902L1468.78 42.5169C1476.29 56.3594 1484.86 70.2538 1496.8 87.9452C1505.46 100.762 1523.27 126.062 1523.77 126.226C1523.99 126.3 1524.41 125.899 1524.71 125.334C1525 124.769 1531.29 115.318 1538.68 104.329C1560.07 72.5275 1567.6 60.1934 1576.41 42.5318L1581.48 32.3524L1581.29 28.5184C1581.22 26.7888 1581.05 25.0646 1580.79 23.3542L1580.48 22.0168L1584.15 22.3661C1586.16 22.5518 1606.05 22.8194 1628.34 22.9605L1668.88 23.2206L1669.12 29.0682C1669.4 36.1417 1670.27 39.5448 1673.63 46.6332C1676.57 52.8522 1679.95 58.0758 1688.55 69.8304C1696.58 80.7528 1697.42 82.0233 1707.72 98.5109C1712.15 105.607 1717.73 114.36 1720.13 117.971L1724.5 124.524L1725.5 123.306C1729.08 118.937 1736.14 108.772 1745.48 94.5135C1750.55 86.7384 1755.71 79.0277 1760.97 71.3832C1775.34 51.0468 1780.11 40.5404 1781.05 27.1289L1781.33 23.1241L1808.66 23.2421C1835.71 23.3533 1835.98 23.3602 1835.83 24.2453C1835.61 25.538 1834.33 26.8161 1829.21 30.8211C1821.25 37.0772 1814.25 46.5508 1794.19 78.2777C1784.49 93.6211 1781.15 98.6514 1769.01 116.209C1758.8 130.965 1752.58 140.417 1748.02 148.07L1744.24 154.423L1748.35 160.486C1750.62 163.829 1759.75 177.761 1768.65 191.462C1801.66 242.233 1818.21 265.319 1835.63 284.852L1840 289.741H1809.73H1779.47L1779.79 288.627C1779.96 288.01 1780.05 285.209 1779.98 282.386L1779.87 277.274L1775.42 269.048C1764.45 248.771 1753.85 232.18 1732.41 201.79L1722.45 187.673L1721.46 188.891C1719.09 191.804 1712.99 200.958 1703.55 215.774C1697.97 224.512 1690.28 235.999 1686.44 241.289C1677.6 253.475 1674.79 257.836 1671.85 263.936C1668.29 271.315 1667.18 275.579 1666.9 282.913L1666.68 288.991L1663.11 289.244C1661.14 289.393 1647.92 289.548 1633.73 289.615L1607.93 289.726L1612.39 285.06C1627.54 269.211 1641.8 250.265 1663.61 217.014C1685.4 183.823 1699.74 162.142 1701.75 159.371L1703.74 156.644L1697.45 146.472C1674.24 108.912 1656.4 82.0221 1639.94 59.8058C1631.8 48.8091 1622.46 36.906 1621.98 36.906C1621.63 36.906 1616.8 43.2142 1609.55 53.141C1598.08 68.841 1584.81 88.8654 1561.18 126.069C1555.2 135.522 1549.18 144.949 1543.12 154.348L1540.59 158.167L1540.32 176.586C1540.18 186.714 1539.88 198.506 1539.65 202.786C1538.86 217.401 1538.6 241.683 1539.15 250.146C1540.2 266.291 1542.54 277.987 1546.62 287.43C1547.14 288.619 1547.43 289.786 1547.28 290.031C1547.09 290.336 1541.1 290.38 1529.34 290.171C1513.12 289.874 1498.66 290.291 1495.3 291.138C1494.75 291.271 1494.31 291.249 1494.31 291.092L1494.3 291.116ZM0 289.377C0 288.575 0.749874 287.713 3.13918 285.788C5.03592 284.272 5.80785 282.876 13.5492 267.153C33.0533 227.535 41.743 207.86 85.3386 104.58C106.129 55.3181 121.663 20.0765 123.869 17.1564C124.883 15.8115 125.339 15.5664 126.795 15.5664H128.515L131.618 22.1272C145.806 52.0933 154.584 72.2291 178.066 128.751C206.59 197.361 215.273 217.081 231.079 249.046C238.872 264.798 244.091 274.732 251.223 287.401L252.656 289.956H202.488L202.466 284.51C202.415 272.622 199.989 264.33 190.078 242.151C187.233 235.79 184.381 229.319 183.734 227.766C183.094 226.213 175.243 208.039 166.296 187.368C148.358 145.929 138.683 123.111 131.11 104.357L126.111 91.9786L124.884 94.4528C120.208 103.793 105.107 139.094 86.9266 183.17C68.9517 226.748 66.6212 232.172 60.3576 244.915C57.2184 251.312 53.8587 258.608 52.9029 261.135C49.6094 269.761 48.2199 277.363 48.4699 285.283L48.6169 289.956H24.3194C4.58011 289.956 0.00735171 289.845 0.00735171 289.377H0ZM870.207 285.959C871.236 283.879 872.574 280.171 873.192 277.727C875.213 269.665 875.647 264.397 876.066 242.596C876.287 231.34 876.706 215.736 876.992 207.905C877.566 192.495 877.36 155.18 876.478 113.623C876.206 100.553 876.11 82.0668 876.272 72.1101L876.559 54.1737L847.387 54.3891C831.008 54.5071 815.995 54.8199 813.158 55.1022C797.756 56.6106 789.118 58.5722 780.2 62.5773C779.685 62.8003 779.634 61.9306 779.884 57.1084C780.7 41.3415 781.582 32.8935 783.089 26.3474L783.839 23.1228H999.281V42.5155C999.281 57.8665 999.171 61.8639 998.737 61.6706C993.297 59.3004 991.437 58.5871 988.261 57.6583C984.166 56.4621 976.101 55.0132 969.146 54.2255C965.103 53.7649 913.545 52.8882 913.038 53.2672C912.413 53.7428 912.156 69.8216 911.641 138.529C911.038 220.633 911.053 234.802 911.751 246.148C912.803 263.215 915.427 277.608 919.177 286.784L920.382 289.734H868.34L870.207 285.959ZM724.525 79.2729C724.378 77.6234 724.151 59.1074 724.011 38.1318L723.753 -1.52588e-05H773.194L770.878 4.3392C767.143 11.3534 761.806 20.4183 750.021 39.8037C737.781 59.9246 732.987 68.0978 728.429 76.6054C726.76 79.7262 725.261 82.2747 725.091 82.2747C724.922 82.2747 724.665 80.9225 724.525 79.2729Z" fill="white"/>
</svg>
